# xmcd
#
# Track frame offsets: 
#        150
#        13000
#        25722
#        38005
#        48535
#        60295
#        72050
#        88140
#        101555
#        111847
#        125710
#        139400
#        150437
#        161932
#
# Disc length: 2359 seconds
#
# Revision: 3
# Processed by: cddbd v1.5.1PL0 Copyright (c) Steve Scherf et al.
# Submitted via: ExactAudioCopy v0.95b1
#
DISCID=b809350e
DTITLE=Various Artist - Country Collection - Ruby, Don't Take Your Love To To
DTITLE=wn
DYEAR=1997
DGENRE=Country
TTITLE0=Kenny Rogers - Ruby, Don't Take Your Love To Town
TTITLE1=Charlie Rich - The Most Beautiful Girl
TTITLE2=Lynn Anderson - Listen To A Country Song
TTITLE3=Don Williams - (There's) Always Somthing There To Remind Me
TTITLE4=Donna Fargo - U.S Of America
TTITLE5=Skeeter Davis - End Of The World
TTITLE6=La Toya Jackson - Theese Boots Are Made For Walking
TTITLE7=David Houston - Almost Persuaded
TTITLE8=The Jordanaires - It's Only Make Believe
TTITLE9=Barbara Fairchild - Teddy Bear Song
TTITLE10=Willie Nelson - Home Is Where You're Happy
TTITLE11=Loretta Lynn - Hey Loretta
TTITLE12=Freddy Fender - Before The Next Teardrop Falls
TTITLE13=Charlie McCoy - Southern Comfort
EXTD=
EXTT0=
EXTT1=
EXTT2=
EXTT3=
EXTT4=
EXTT5=
EXTT6=
EXTT7=
EXTT8=
EXTT9=
EXTT10=
EXTT11=
EXTT12=
EXTT13=
PLAYORDER=
